<svg xmlns="http://www.w3.org/2000/svg" xmlns:xlink="http://www.w3.org/1999/xlink" width="1080" zoomAndPan="magnify" viewBox="0 0 810 809.999993" height="1080" preserveAspectRatio="xMidYMid meet" version="1.0"><defs><clipPath id="19b7fb1432"><path d="M 205 343 L 601 343 L 601 694.351562 L 205 694.351562 Z M 205 343 " clip-rule="nonzero"/></clipPath></defs><path fill="#da3368" d="M 512.675781 321.644531 C 512.675781 351.261719 513.089844 380.878906 512.675781 410.496094 C 512.5625 412.214844 512.410156 413.933594 512.214844 415.644531 C 512.019531 417.355469 511.785156 419.0625 511.507812 420.765625 C 511.234375 422.46875 510.917969 424.160156 510.566406 425.847656 C 510.210938 427.535156 509.816406 429.210938 509.382812 430.878906 C 508.949219 432.546875 508.476562 434.207031 507.964844 435.851562 C 507.453125 437.496094 506.90625 439.128906 506.316406 440.75 C 505.726562 442.371094 505.101562 443.976562 504.4375 445.566406 C 503.773438 447.15625 503.074219 448.730469 502.335938 450.289062 C 501.597656 451.847656 500.824219 453.386719 500.015625 454.90625 C 499.203125 456.429688 498.359375 457.929688 497.476562 459.410156 C 496.597656 460.894531 495.683594 462.355469 494.734375 463.792969 C 493.78125 465.230469 492.800781 466.644531 491.785156 468.039062 C 490.769531 469.429688 489.71875 470.796875 488.640625 472.140625 C 487.558594 473.484375 486.449219 474.800781 485.304688 476.09375 C 484.164062 477.382812 482.992188 478.644531 481.789062 479.882812 C 480.589844 481.117188 479.359375 482.324219 478.101562 483.5 C 476.839844 484.679688 475.554688 485.828125 474.242188 486.945312 C 472.933594 488.0625 471.59375 489.148438 470.230469 490.203125 C 468.867188 491.257812 467.480469 492.277344 466.066406 493.265625 C 464.65625 494.257812 463.222656 495.210938 461.765625 496.132812 C 460.308594 497.054688 458.832031 497.941406 457.335938 498.792969 C 455.835938 499.648438 454.320312 500.464844 452.78125 501.246094 C 451.246094 502.023438 449.691406 502.769531 448.121094 503.476562 C 446.546875 504.183594 444.960938 504.855469 443.359375 505.488281 C 441.753906 506.121094 440.136719 506.71875 438.507812 507.273438 C 436.875 507.832031 435.234375 508.351562 433.578125 508.828125 C 431.921875 509.308594 430.257812 509.75 428.578125 510.152344 C 426.902344 510.554688 425.21875 510.914062 423.527344 511.238281 C 421.832031 511.558594 420.132812 511.839844 418.425781 512.085938 C 416.71875 512.328125 415.007812 512.527344 413.292969 512.691406 C 411.578125 512.851562 409.859375 512.972656 408.136719 513.054688 C 406.414062 513.136719 404.691406 513.175781 402.96875 513.175781 C 401.246094 513.175781 399.523438 513.136719 397.800781 513.054688 C 396.078125 512.972656 394.359375 512.851562 392.644531 512.691406 C 390.929688 512.527344 389.21875 512.328125 387.511719 512.085938 C 385.804688 511.839844 384.105469 511.558594 382.410156 511.238281 C 380.71875 510.914062 379.03125 510.554688 377.355469 510.152344 C 375.679688 509.75 374.015625 509.308594 372.359375 508.828125 C 370.703125 508.351562 369.0625 507.832031 367.429688 507.273438 C 365.796875 506.71875 364.179688 506.121094 362.578125 505.488281 C 360.976562 504.855469 359.386719 504.183594 357.816406 503.476562 C 356.246094 502.769531 354.691406 502.023438 353.15625 501.246094 C 351.617188 500.464844 350.101562 499.648438 348.601562 498.792969 C 347.105469 497.941406 345.628906 497.054688 344.171875 496.132812 C 342.714844 495.210938 341.28125 494.257812 339.867188 493.265625 C 338.457031 492.277344 337.070312 491.257812 335.707031 490.203125 C 334.34375 489.148438 333.003906 488.0625 331.691406 486.945312 C 330.378906 485.828125 329.09375 484.679688 327.835938 483.5 C 326.578125 482.324219 325.347656 481.117188 324.144531 479.882812 C 322.945312 478.644531 321.773438 477.382812 320.628906 476.09375 C 319.488281 474.800781 318.378906 473.484375 317.296875 472.140625 C 316.214844 470.796875 315.167969 469.429688 314.152344 468.039062 C 313.136719 466.644531 312.152344 465.230469 311.203125 463.792969 C 310.253906 462.355469 309.339844 460.894531 308.457031 459.410156 C 307.578125 457.929688 306.734375 456.429688 305.921875 454.90625 C 305.113281 453.386719 304.339844 451.847656 303.601562 450.289062 C 302.863281 448.730469 302.164062 447.15625 301.5 445.566406 C 300.835938 443.976562 300.207031 442.371094 299.621094 440.75 C 299.03125 439.128906 298.484375 437.496094 297.972656 435.851562 C 297.460938 434.207031 296.988281 432.546875 296.554688 430.878906 C 296.121094 429.210938 295.726562 427.535156 295.371094 425.847656 C 295.015625 424.160156 294.703125 422.46875 294.425781 420.765625 C 294.152344 419.0625 293.917969 417.355469 293.722656 415.644531 C 293.527344 413.933594 293.375 412.214844 293.261719 410.496094 C 292.664062 350.941406 292.664062 291.222656 293.261719 231.347656 C 293.335938 228.472656 293.519531 225.601562 293.820312 222.738281 C 294.121094 219.878906 294.53125 217.03125 295.054688 214.203125 C 295.578125 211.371094 296.210938 208.566406 296.953125 205.785156 C 297.695312 203.007812 298.546875 200.257812 299.507812 197.546875 C 300.464844 194.832031 301.53125 192.160156 302.699219 189.53125 C 303.867188 186.902344 305.136719 184.320312 306.507812 181.792969 C 307.878906 179.261719 309.347656 176.789062 310.914062 174.375 C 312.480469 171.960938 314.136719 169.609375 315.886719 167.324219 C 317.636719 165.042969 319.472656 162.828125 321.394531 160.6875 C 323.320312 158.546875 325.324219 156.484375 327.410156 154.503906 C 329.496094 152.519531 331.65625 150.621094 333.890625 148.808594 C 336.125 146.996094 338.425781 145.273438 340.796875 143.640625 C 343.167969 142.007812 345.597656 140.46875 348.085938 139.027344 C 350.578125 137.585938 353.121094 136.246094 355.71875 135.003906 C 358.3125 133.761719 360.953125 132.621094 363.640625 131.585938 C 366.324219 130.550781 369.046875 129.625 371.804688 128.804688 C 374.5625 127.984375 377.347656 127.269531 380.164062 126.667969 C 382.976562 126.066406 385.808594 125.574219 388.664062 125.195312 C 391.515625 124.816406 394.378906 124.546875 397.25 124.394531 C 400.125 124.238281 403 124.195312 405.878906 124.265625 C 408.753906 124.339844 411.625 124.523438 414.488281 124.816406 C 417.347656 125.113281 420.195312 125.523438 423.027344 126.042969 C 425.855469 126.5625 428.664062 127.191406 431.441406 127.929688 C 434.222656 128.671875 436.972656 129.519531 439.6875 130.472656 C 442.402344 131.429688 445.074219 132.492188 447.703125 133.65625 C 450.335938 134.820312 452.917969 136.089844 455.449219 137.457031 C 457.980469 138.824219 460.453125 140.289062 462.871094 141.851562 C 465.289062 143.414062 467.640625 145.070312 469.925781 146.816406 C 472.214844 148.566406 474.425781 150.398438 476.570312 152.320312 C 478.714844 154.242188 480.777344 156.242188 482.761719 158.328125 C 484.746094 160.410156 486.648438 162.566406 488.464844 164.800781 C 490.28125 167.03125 492.007812 169.332031 493.640625 171.699219 C 496.742188 176.136719 499.484375 180.785156 501.871094 185.640625 C 504.257812 190.496094 506.261719 195.507812 507.882812 200.671875 C 509.503906 205.835938 510.71875 211.09375 511.535156 216.441406 C 512.351562 221.792969 512.753906 227.171875 512.746094 232.585938 C 512.746094 262.410156 512.675781 292.027344 512.675781 321.644531 Z M 512.675781 321.644531 " fill-opacity="1" fill-rule="nonzero"/><g clip-path="url(#19b7fb1432)"><path fill="#da3368" d="M 425.609375 605.035156 L 425.609375 648.328125 C 429.210938 648.90625 432.828125 649.296875 436.46875 649.496094 C 458.59375 649.496094 480.652344 649.496094 502.78125 649.496094 C 507.402344 649.363281 511.984375 649.730469 516.523438 650.597656 C 517.839844 650.820312 519.125 651.160156 520.378906 651.617188 C 521.632812 652.070312 522.835938 652.636719 523.988281 653.3125 C 525.140625 653.988281 526.222656 654.757812 527.230469 655.628906 C 528.242188 656.5 529.167969 657.457031 530.003906 658.496094 C 530.84375 659.535156 531.582031 660.640625 532.21875 661.8125 C 532.855469 662.984375 533.382812 664.207031 533.796875 665.472656 C 534.214844 666.742188 534.511719 668.035156 534.691406 669.359375 C 534.871094 670.679688 534.933594 672.007812 534.871094 673.34375 C 534.746094 674.65625 534.511719 675.949219 534.160156 677.222656 C 533.8125 678.496094 533.355469 679.730469 532.792969 680.925781 C 532.234375 682.121094 531.570312 683.257812 530.8125 684.335938 C 530.054688 685.417969 529.207031 686.425781 528.273438 687.359375 C 527.339844 688.292969 526.332031 689.136719 525.253906 689.898438 C 524.171875 690.65625 523.035156 691.316406 521.839844 691.878906 C 520.644531 692.441406 519.414062 692.898438 518.140625 693.246094 C 516.867188 693.597656 515.570312 693.832031 514.257812 693.957031 C 510.957031 694.164062 507.660156 694.164062 504.363281 693.957031 C 436.878906 693.957031 369.171875 693.957031 301.230469 693.957031 C 297.476562 694.265625 293.71875 694.265625 289.960938 693.957031 C 288.730469 693.734375 287.527344 693.414062 286.351562 692.996094 C 285.171875 692.574219 284.039062 692.0625 282.945312 691.457031 C 281.851562 690.851562 280.816406 690.160156 279.835938 689.382812 C 278.859375 688.605469 277.949219 687.753906 277.109375 686.828125 C 276.269531 685.902344 275.511719 684.914062 274.835938 683.863281 C 274.15625 682.8125 273.570312 681.714844 273.074219 680.570312 C 272.578125 679.421875 272.175781 678.242188 271.875 677.03125 C 271.574219 675.816406 271.371094 674.585938 271.269531 673.34375 C 271.199219 672.046875 271.238281 670.757812 271.398438 669.472656 C 271.554688 668.1875 271.824219 666.921875 272.203125 665.683594 C 272.585938 664.445312 273.074219 663.25 273.667969 662.101562 C 274.261719 660.949219 274.953125 659.859375 275.738281 658.828125 C 276.527344 657.800781 277.402344 656.851562 278.359375 655.976562 C 279.316406 655.101562 280.339844 654.320312 281.4375 653.628906 C 282.535156 652.9375 283.683594 652.351562 284.882812 651.863281 C 286.085938 651.378906 287.320312 651 288.585938 650.734375 C 293.121094 649.78125 297.699219 649.367188 302.332031 649.496094 C 322.945312 649.496094 343.5625 649.496094 364.175781 649.496094 L 379.019531 649.496094 L 379.019531 605.859375 C 366.445312 602.699219 353.9375 600.570312 342.050781 596.445312 C 272.09375 572.257812 228.117188 523.46875 209.972656 451.382812 C 207.65625 441.761719 206.375 432.003906 206.125 422.109375 C 205.371094 403.28125 205.300781 384.453125 205.644531 365.621094 C 205.632812 364.90625 205.65625 364.191406 205.714844 363.480469 C 205.773438 362.765625 205.867188 362.058594 205.996094 361.351562 C 206.125 360.648438 206.289062 359.953125 206.484375 359.265625 C 206.683594 358.578125 206.914062 357.898438 207.175781 357.234375 C 207.441406 356.570312 207.734375 355.917969 208.0625 355.28125 C 208.390625 354.644531 208.75 354.027344 209.136719 353.425781 C 209.523438 352.824219 209.941406 352.242188 210.386719 351.683594 C 210.832031 351.121094 211.304688 350.585938 211.800781 350.070312 C 212.300781 349.554688 212.820312 349.066406 213.367188 348.605469 C 213.914062 348.140625 214.480469 347.707031 215.070312 347.300781 C 215.660156 346.894531 216.265625 346.515625 216.894531 346.167969 C 217.519531 345.820312 218.160156 345.507812 218.816406 345.222656 C 219.472656 344.9375 220.144531 344.6875 220.824219 344.46875 C 221.507812 344.25 222.195312 344.066406 222.898438 343.914062 C 223.597656 343.761719 224.300781 343.648438 225.011719 343.566406 C 225.722656 343.484375 226.4375 343.4375 227.152344 343.425781 C 227.867188 343.414062 228.582031 343.441406 229.296875 343.5 C 230.011719 343.558594 230.71875 343.652344 231.421875 343.78125 C 232.128906 343.910156 232.824219 344.070312 233.511719 344.269531 C 234.199219 344.464844 234.875 344.695312 235.542969 344.957031 C 236.207031 345.222656 236.859375 345.519531 237.496094 345.84375 C 238.132812 346.171875 238.75 346.53125 239.351562 346.917969 C 239.953125 347.308594 240.535156 347.722656 241.09375 348.167969 C 241.65625 348.613281 242.191406 349.085938 242.707031 349.585938 C 243.21875 350.082031 243.707031 350.605469 244.171875 351.152344 C 244.632812 351.695312 245.070312 352.265625 245.476562 352.851562 C 245.882812 353.441406 246.257812 354.050781 246.605469 354.675781 C 246.953125 355.300781 247.269531 355.941406 247.554688 356.597656 C 247.839844 357.257812 248.089844 357.925781 248.308594 358.605469 C 248.527344 359.289062 248.710938 359.980469 248.863281 360.679688 C 249.011719 361.378906 249.128906 362.085938 249.210938 362.796875 C 249.292969 363.507812 249.339844 364.21875 249.347656 364.9375 C 250.175781 380.878906 249.347656 396.890625 249.832031 413.039062 C 251.273438 470.691406 278.964844 512.953125 327.277344 542.367188 C 329.109375 543.417969 330.964844 544.429688 332.84375 545.402344 C 334.71875 546.375 336.617188 547.308594 338.53125 548.203125 C 340.449219 549.097656 342.382812 549.953125 344.332031 550.765625 C 346.285156 551.578125 348.25 552.351562 350.234375 553.085938 C 352.21875 553.816406 354.21875 554.507812 356.230469 555.15625 C 358.242188 555.804688 360.265625 556.410156 362.304688 556.972656 C 364.34375 557.539062 366.390625 558.058594 368.449219 558.539062 C 370.507812 559.019531 372.578125 559.453125 374.65625 559.847656 C 376.734375 560.238281 378.816406 560.589844 380.910156 560.894531 C 383.003906 561.199219 385.097656 561.460938 387.203125 561.679688 C 389.304688 561.898438 391.414062 562.074219 393.523438 562.203125 C 395.632812 562.332031 397.746094 562.421875 399.859375 562.464844 C 401.972656 562.503906 404.085938 562.503906 406.199219 562.457031 C 408.3125 562.414062 410.425781 562.324219 412.535156 562.191406 C 414.644531 562.054688 416.753906 561.878906 418.855469 561.65625 C 420.957031 561.4375 423.054688 561.171875 425.148438 560.863281 C 427.238281 560.554688 429.324219 560.203125 431.398438 559.804688 C 433.476562 559.410156 435.542969 558.972656 437.605469 558.488281 C 439.664062 558.007812 441.710938 557.484375 443.746094 556.917969 C 445.785156 556.347656 447.808594 555.742188 449.820312 555.089844 C 451.832031 554.4375 453.828125 553.746094 455.808594 553.007812 C 457.792969 552.273438 459.757812 551.5 461.710938 550.683594 C 463.660156 549.867188 465.59375 549.007812 467.507812 548.113281 C 469.421875 547.214844 471.316406 546.277344 473.191406 545.300781 C 475.066406 544.324219 476.921875 543.3125 478.753906 542.257812 C 480.589844 541.203125 482.398438 540.113281 484.1875 538.984375 C 485.972656 537.855469 487.738281 536.691406 489.476562 535.488281 C 491.214844 534.285156 492.929688 533.046875 494.617188 531.773438 C 496.304688 530.5 497.964844 529.191406 499.597656 527.847656 C 501.230469 526.503906 502.835938 525.128906 504.410156 523.71875 C 505.988281 522.308594 507.53125 520.867188 509.046875 519.394531 C 510.5625 517.917969 512.046875 516.414062 513.5 514.878906 C 516.851562 511.484375 520.03125 507.941406 523.035156 504.238281 C 526.039062 500.539062 528.859375 496.699219 531.492188 492.726562 C 534.125 488.75 536.558594 484.65625 538.792969 480.445312 C 541.03125 476.234375 543.054688 471.925781 544.871094 467.515625 C 546.6875 463.109375 548.285156 458.621094 549.664062 454.058594 C 551.046875 449.496094 552.203125 444.875 553.132812 440.199219 C 554.066406 435.523438 554.765625 430.8125 555.242188 426.070312 C 555.714844 421.324219 555.957031 416.570312 555.96875 411.800781 C 555.96875 398.675781 555.96875 385.480469 555.96875 372.289062 C 555.839844 368.527344 556.09375 364.796875 556.726562 361.085938 C 556.972656 359.824219 557.328125 358.589844 557.792969 357.390625 C 558.257812 356.1875 558.828125 355.039062 559.496094 353.9375 C 560.167969 352.839844 560.925781 351.804688 561.78125 350.839844 C 562.632812 349.875 563.5625 348.992188 564.574219 348.191406 C 565.582031 347.390625 566.65625 346.6875 567.789062 346.078125 C 568.925781 345.46875 570.101562 344.960938 571.328125 344.5625 C 572.550781 344.160156 573.800781 343.871094 575.078125 343.691406 C 576.351562 343.511719 577.632812 343.449219 578.921875 343.496094 C 579.566406 343.496094 580.214844 343.523438 580.859375 343.582031 C 581.503906 343.640625 582.144531 343.730469 582.78125 343.851562 C 583.417969 343.972656 584.046875 344.121094 584.667969 344.300781 C 585.289062 344.480469 585.902344 344.6875 586.503906 344.921875 C 587.109375 345.160156 587.699219 345.425781 588.277344 345.71875 C 588.851562 346.007812 589.414062 346.328125 589.964844 346.671875 C 590.511719 347.019531 591.042969 347.390625 591.554688 347.785156 C 592.066406 348.179688 592.558594 348.597656 593.03125 349.039062 C 593.507812 349.480469 593.957031 349.945312 594.386719 350.429688 C 594.816406 350.914062 595.222656 351.417969 595.605469 351.9375 C 595.988281 352.460938 596.34375 353 596.675781 353.558594 C 597.007812 354.113281 597.3125 354.683594 597.589844 355.269531 C 597.867188 355.855469 598.117188 356.449219 598.339844 357.058594 C 598.558594 357.667969 598.753906 358.285156 598.914062 358.910156 C 599.078125 359.539062 599.210938 360.171875 599.316406 360.808594 C 599.417969 361.449219 599.492188 362.089844 599.535156 362.738281 C 604.964844 435.441406 593.421875 502.578125 535.835938 554.597656 C 528.746094 561.132812 521.210938 567.109375 513.230469 572.527344 C 505.253906 577.941406 496.917969 582.738281 488.222656 586.910156 C 479.53125 591.085938 470.578125 594.59375 461.363281 597.4375 C 452.148438 600.277344 442.773438 602.421875 433.238281 603.867188 C 431.246094 603.9375 428.976562 604.625 425.609375 605.035156 Z M 425.609375 605.035156 " fill-opacity="1" fill-rule="nonzero"/></g></svg>