<svg xmlns="http://www.w3.org/2000/svg" xmlns:xlink="http://www.w3.org/1999/xlink" width="1080" zoomAndPan="magnify" viewBox="0 0 810 809.999993" height="1080" preserveAspectRatio="xMidYMid meet" version="1.0"><path fill="#da3368" d="M 710.957031 658.335938 L 671.710938 543.539062 C 673.671875 540.097656 675.535156 536.601562 677.300781 533.050781 C 679.066406 529.503906 680.734375 525.90625 682.296875 522.265625 C 683.863281 518.625 685.324219 514.941406 686.679688 511.21875 C 688.039062 507.492188 689.292969 503.734375 690.441406 499.941406 C 691.589844 496.148438 692.628906 492.324219 693.5625 488.472656 C 694.5 484.621094 695.324219 480.746094 696.042969 476.847656 C 696.757812 472.949219 697.367188 469.035156 697.863281 465.101562 C 698.363281 461.167969 698.75 457.226562 699.027344 453.273438 C 699.304688 449.320312 699.472656 445.359375 699.527344 441.398438 C 699.582031 437.433594 699.527344 433.472656 699.363281 429.511719 C 699.195312 425.550781 698.921875 421.597656 698.535156 417.65625 C 698.144531 413.710938 697.648438 409.777344 697.042969 405.863281 C 696.433594 401.945312 695.71875 398.046875 694.894531 394.171875 C 694.070312 390.296875 693.136719 386.445312 692.09375 382.621094 C 691.054688 378.796875 689.90625 375.003906 688.65625 371.242188 C 687.402344 367.480469 686.046875 363.757812 684.585938 360.074219 C 683.121094 356.390625 681.558594 352.75 679.894531 349.152344 C 678.230469 345.554688 676.464844 342.007812 674.601562 338.507812 C 672.738281 335.011719 670.777344 331.566406 668.722656 328.179688 C 666.667969 324.789062 664.515625 321.460938 662.273438 318.195312 C 660.03125 314.925781 657.699219 311.722656 655.277344 308.585938 C 652.855469 305.449219 650.347656 302.378906 647.757812 299.382812 C 645.164062 296.386719 642.488281 293.460938 639.730469 290.613281 C 636.972656 287.765625 634.140625 285 631.226562 282.308594 C 628.316406 279.621094 625.332031 277.015625 622.273438 274.492188 C 619.214844 271.96875 616.089844 269.535156 612.894531 267.1875 C 609.699219 264.839844 606.445312 262.585938 603.125 260.421875 C 599.804688 258.257812 596.425781 256.1875 592.988281 254.210938 C 589.554688 252.234375 586.066406 250.355469 582.523438 248.574219 C 578.980469 246.796875 575.394531 245.113281 571.757812 243.535156 C 568.125 241.957031 564.445312 240.480469 560.730469 239.105469 C 557.011719 237.730469 553.257812 236.460938 549.46875 235.296875 C 551.5625 239.898438 553.511719 244.558594 555.316406 249.277344 C 557.121094 254 558.78125 258.769531 560.292969 263.59375 C 561.804688 268.414062 563.164062 273.277344 564.378906 278.183594 C 565.589844 283.09375 566.648438 288.03125 567.554688 293.003906 C 568.464844 297.972656 569.21875 302.96875 569.816406 307.988281 C 570.417969 313.003906 570.863281 318.035156 571.152344 323.082031 C 571.441406 328.128906 571.574219 333.175781 571.554688 338.230469 C 571.535156 343.285156 571.355469 348.332031 571.023438 353.375 C 570.691406 358.417969 570.203125 363.445312 569.5625 368.460938 C 568.917969 373.472656 568.125 378.460938 567.175781 383.425781 C 566.226562 388.386719 565.125 393.316406 563.871094 398.214844 C 562.617188 403.109375 561.214844 407.960938 559.660156 412.773438 C 558.109375 417.582031 556.410156 422.339844 554.566406 427.042969 C 552.71875 431.75 550.730469 436.390625 548.597656 440.972656 C 546.46875 445.554688 544.195312 450.070312 541.789062 454.511719 C 539.378906 458.953125 536.832031 463.316406 534.15625 467.601562 C 531.476562 471.890625 528.667969 476.085938 525.730469 480.199219 C 522.792969 484.3125 519.734375 488.332031 516.546875 492.253906 C 513.363281 496.179688 510.0625 500 506.640625 503.722656 C 503.21875 507.441406 499.6875 511.054688 496.046875 514.558594 C 492.402344 518.058594 488.65625 521.449219 484.804688 524.71875 C 480.953125 527.992188 477.003906 531.140625 472.957031 534.171875 C 468.914062 537.199219 464.777344 540.101562 460.550781 542.875 C 456.328125 545.648438 452.023438 548.289062 447.636719 550.796875 C 443.246094 553.308594 438.789062 555.679688 434.253906 557.910156 C 429.722656 560.144531 425.125 562.238281 420.460938 564.1875 C 415.796875 566.136719 411.082031 567.945312 406.308594 569.601562 C 401.535156 571.261719 396.714844 572.773438 391.847656 574.136719 C 386.980469 575.5 382.078125 576.710938 377.136719 577.773438 C 372.195312 578.832031 367.226562 579.742188 362.226562 580.496094 C 357.230469 581.25 352.214844 581.847656 347.179688 582.292969 C 342.148438 582.742188 337.105469 583.03125 332.050781 583.164062 C 334.046875 585.296875 336.082031 587.386719 338.160156 589.433594 C 340.242188 591.480469 342.363281 593.484375 344.523438 595.445312 C 346.6875 597.40625 348.890625 599.320312 351.128906 601.191406 C 353.371094 603.0625 355.648438 604.882812 357.964844 606.660156 C 360.28125 608.433594 362.636719 610.164062 365.023438 611.839844 C 367.410156 613.519531 369.832031 615.148438 372.285156 616.726562 C 374.742188 618.308594 377.226562 619.835938 379.742188 621.3125 C 382.261719 622.789062 384.808594 624.210938 387.386719 625.582031 C 389.960938 626.953125 392.566406 628.273438 395.195312 629.539062 C 397.824219 630.800781 400.480469 632.011719 403.160156 633.167969 C 405.84375 634.320312 408.546875 635.421875 411.269531 636.464844 C 413.996094 637.507812 416.742188 638.492188 419.507812 639.425781 C 422.277344 640.355469 425.058594 641.226562 427.863281 642.042969 C 430.664062 642.859375 433.484375 643.617188 436.316406 644.316406 C 439.148438 645.015625 441.996094 645.65625 444.855469 646.238281 C 447.71875 646.820312 450.589844 647.34375 453.46875 647.808594 C 456.351562 648.269531 459.242188 648.675781 462.140625 649.019531 C 465.039062 649.363281 467.941406 649.648438 470.851562 649.875 C 473.761719 650.097656 476.675781 650.265625 479.59375 650.371094 C 482.507812 650.472656 485.425781 650.519531 488.34375 650.503906 C 491.261719 650.488281 494.179688 650.414062 497.097656 650.277344 C 500.011719 650.140625 502.921875 649.945312 505.832031 649.691406 C 508.738281 649.4375 511.640625 649.121094 514.535156 648.746094 C 517.429688 648.371094 520.3125 647.9375 523.191406 647.441406 C 526.066406 646.949219 528.933594 646.394531 531.785156 645.78125 C 534.640625 645.171875 537.480469 644.5 540.304688 643.773438 C 543.132812 643.042969 545.941406 642.253906 548.734375 641.410156 C 551.527344 640.566406 554.304688 639.664062 557.0625 638.703125 C 559.816406 637.746094 562.554688 636.730469 565.265625 635.65625 C 567.980469 634.585938 570.671875 633.457031 573.34375 632.277344 C 576.011719 631.09375 578.652344 629.855469 581.269531 628.5625 C 583.886719 627.273438 586.476562 625.925781 589.039062 624.527344 L 700.898438 668.011719 C 701.582031 668.269531 702.289062 668.429688 703.019531 668.488281 C 703.746094 668.546875 704.46875 668.503906 705.183594 668.359375 C 705.902344 668.210938 706.582031 667.96875 707.230469 667.628906 C 707.878906 667.289062 708.464844 666.863281 708.992188 666.359375 C 709.515625 665.851562 709.964844 665.28125 710.328125 664.648438 C 710.691406 664.015625 710.960938 663.34375 711.136719 662.632812 C 711.308594 661.921875 711.382812 661.203125 711.351562 660.472656 C 711.320312 659.742188 711.1875 659.03125 710.957031 658.335938 Z M 710.957031 658.335938 " fill-opacity="1" fill-rule="nonzero"/><path fill="#da3368" d="M 537.621094 336.996094 C 537.605469 332.929688 537.472656 328.871094 537.222656 324.816406 C 536.972656 320.761719 536.609375 316.714844 536.128906 312.679688 C 535.644531 308.644531 535.050781 304.628906 534.335938 300.628906 C 533.625 296.628906 532.796875 292.652344 531.855469 288.699219 C 530.914062 284.746094 529.859375 280.824219 528.695312 276.929688 C 527.527344 273.039062 526.25 269.183594 524.859375 265.363281 C 523.472656 261.546875 521.976562 257.769531 520.371094 254.035156 C 518.765625 250.304688 517.054688 246.621094 515.234375 242.988281 C 513.417969 239.351562 511.496094 235.773438 509.476562 232.25 C 507.453125 228.726562 505.328125 225.261719 503.105469 221.859375 C 500.882812 218.460938 498.566406 215.125 496.152344 211.855469 C 493.738281 208.585938 491.230469 205.390625 488.632812 202.265625 C 486.035156 199.140625 483.351562 196.09375 480.578125 193.125 C 477.804688 190.15625 474.949219 187.269531 472.007812 184.460938 C 469.070312 181.65625 466.050781 178.9375 462.957031 176.304688 C 459.859375 173.671875 456.691406 171.132812 453.449219 168.683594 C 450.207031 166.234375 446.898438 163.878906 443.523438 161.617188 C 440.144531 159.359375 436.707031 157.199219 433.203125 155.136719 C 429.703125 153.074219 426.144531 151.113281 422.53125 149.257812 C 418.917969 147.398438 415.253906 145.648438 411.539062 144 C 407.824219 142.355469 404.0625 140.816406 400.261719 139.386719 C 396.457031 137.957031 392.617188 136.636719 388.738281 135.425781 C 384.859375 134.21875 380.945312 133.121094 377.003906 132.136719 C 373.0625 131.152344 369.09375 130.28125 365.101562 129.523438 C 361.109375 128.765625 357.101562 128.125 353.070312 127.601562 C 349.042969 127.074219 345 126.664062 340.949219 126.371094 C 336.894531 126.078125 332.835938 125.902344 328.773438 125.839844 C 324.710938 125.78125 320.652344 125.839844 316.589844 126.011719 C 312.53125 126.183594 308.480469 126.476562 304.4375 126.882812 C 300.394531 127.289062 296.367188 127.808594 292.351562 128.449219 C 288.339844 129.085938 284.347656 129.839844 280.378906 130.707031 C 276.410156 131.574219 272.46875 132.554688 268.554688 133.648438 C 264.640625 134.742188 260.761719 135.949219 256.917969 137.265625 C 253.074219 138.582031 249.273438 140.011719 245.511719 141.546875 C 241.75 143.082031 238.035156 144.726562 234.367188 146.472656 C 230.699219 148.222656 227.085938 150.078125 223.523438 152.035156 C 219.964844 153.992188 216.460938 156.050781 213.019531 158.207031 C 209.578125 160.367188 206.199219 162.625 202.886719 164.976562 C 199.574219 167.328125 196.332031 169.777344 193.160156 172.316406 C 189.988281 174.855469 186.890625 177.484375 183.871094 180.199219 C 180.847656 182.917969 177.910156 185.71875 175.050781 188.605469 C 172.1875 191.492188 169.414062 194.460938 166.726562 197.503906 C 164.035156 200.550781 161.4375 203.671875 158.925781 206.867188 C 156.417969 210.0625 154 213.328125 151.679688 216.664062 C 149.359375 219.996094 147.132812 223.394531 145.007812 226.859375 C 142.878906 230.320312 140.855469 233.839844 138.929688 237.421875 C 137.007812 241 135.1875 244.628906 133.472656 248.3125 C 131.757812 251.996094 130.148438 255.726562 128.648438 259.503906 C 127.148438 263.28125 125.753906 267.09375 124.472656 270.953125 C 123.191406 274.808594 122.023438 278.695312 120.964844 282.621094 C 119.90625 286.542969 118.964844 290.492188 118.132812 294.472656 C 117.300781 298.449219 116.585938 302.445312 115.988281 306.464844 C 115.386719 310.484375 114.902344 314.515625 114.53125 318.5625 C 114.164062 322.609375 113.910156 326.664062 113.777344 330.726562 C 113.640625 334.785156 113.621094 338.847656 113.71875 342.910156 C 113.816406 346.972656 114.03125 351.027344 114.363281 355.078125 C 114.695312 359.128906 115.140625 363.164062 115.703125 367.1875 C 116.269531 371.214844 116.945312 375.21875 117.742188 379.203125 C 118.535156 383.1875 119.441406 387.148438 120.460938 391.078125 C 121.484375 395.011719 122.617188 398.914062 123.863281 402.78125 C 125.109375 406.648438 126.464844 410.476562 127.929688 414.265625 C 129.394531 418.054688 130.96875 421.800781 132.648438 425.5 C 134.332031 429.199219 136.117188 432.847656 138.007812 436.445312 C 139.898438 440.039062 141.890625 443.578125 143.984375 447.0625 L 130.453125 486.742188 L 108.710938 550.550781 C 108.476562 551.246094 108.34375 551.957031 108.316406 552.6875 C 108.285156 553.417969 108.355469 554.136719 108.53125 554.847656 C 108.703125 555.558594 108.972656 556.230469 109.335938 556.863281 C 109.703125 557.496094 110.148438 558.066406 110.675781 558.574219 C 111.203125 559.082031 111.789062 559.503906 112.433594 559.84375 C 113.082031 560.183594 113.765625 560.425781 114.480469 560.574219 C 115.195312 560.71875 115.917969 560.765625 116.648438 560.703125 C 117.375 560.644531 118.082031 560.488281 118.765625 560.226562 L 181 536.039062 L 219.539062 521.039062 C 232.78125 528.6875 246.691406 534.828125 261.261719 539.464844 C 275.835938 544.101562 290.734375 547.128906 305.960938 548.542969 C 312.429688 549.085938 319.007812 549.410156 325.636719 549.410156 C 329.113281 549.410156 332.582031 549.324219 336.054688 549.15625 C 339.523438 548.984375 342.984375 548.730469 346.441406 548.386719 C 349.898438 548.046875 353.347656 547.621094 356.78125 547.109375 C 360.21875 546.601562 363.640625 546.007812 367.046875 545.328125 C 370.453125 544.648438 373.84375 543.886719 377.210938 543.042969 C 380.582031 542.195312 383.925781 541.269531 387.25 540.257812 C 390.574219 539.25 393.871094 538.160156 397.140625 536.988281 C 400.414062 535.816406 403.652344 534.5625 406.859375 533.234375 C 410.070312 531.902344 413.242188 530.492188 416.382812 529.007812 C 419.523438 527.519531 422.621094 525.957031 425.683594 524.316406 C 428.746094 522.675781 431.769531 520.964844 434.746094 519.175781 C 437.726562 517.386719 440.65625 515.527344 443.542969 513.59375 C 446.429688 511.664062 449.269531 509.660156 452.058594 507.589844 C 454.847656 505.519531 457.582031 503.378906 460.265625 501.171875 C 462.949219 498.964844 465.574219 496.695312 468.148438 494.359375 C 470.71875 492.023438 473.230469 489.628906 475.683594 487.167969 C 478.140625 484.710938 480.53125 482.191406 482.863281 479.617188 C 485.191406 477.039062 487.457031 474.40625 489.65625 471.71875 C 491.859375 469.03125 493.992188 466.292969 496.058594 463.5 C 498.125 460.707031 500.121094 457.863281 502.046875 454.972656 C 503.972656 452.082031 505.824219 449.148438 507.609375 446.164062 C 509.390625 443.183594 511.097656 440.160156 512.730469 437.09375 C 514.363281 434.027344 515.921875 430.921875 517.402344 427.78125 C 518.882812 424.636719 520.285156 421.460938 521.609375 418.25 C 522.933594 415.039062 524.175781 411.796875 525.34375 408.523438 C 526.507812 405.25 527.589844 401.953125 528.59375 398.625 C 529.597656 395.300781 530.519531 391.953125 531.355469 388.582031 C 532.195312 385.210938 532.949219 381.820312 533.621094 378.410156 C 534.292969 375.003906 534.878906 371.582031 535.382812 368.144531 C 535.886719 364.707031 536.304688 361.257812 536.640625 357.800781 C 536.972656 354.34375 537.222656 350.878906 537.386719 347.410156 C 537.546875 343.941406 537.625 340.46875 537.621094 336.996094 Z M 352.273438 385.914062 C 352.273438 386.464844 352.246094 387.015625 352.191406 387.566406 C 352.136719 388.113281 352.054688 388.660156 351.949219 389.199219 C 351.839844 389.742188 351.707031 390.277344 351.546875 390.804688 C 351.386719 391.332031 351.199219 391.851562 350.988281 392.363281 C 350.777344 392.871094 350.542969 393.371094 350.28125 393.855469 C 350.023438 394.34375 349.738281 394.816406 349.433594 395.273438 C 349.125 395.734375 348.796875 396.175781 348.445312 396.601562 C 348.097656 397.03125 347.726562 397.4375 347.335938 397.828125 C 346.945312 398.21875 346.539062 398.589844 346.109375 398.9375 C 345.683594 399.289062 345.242188 399.617188 344.78125 399.921875 C 344.324219 400.230469 343.851562 400.511719 343.363281 400.773438 C 342.878906 401.035156 342.378906 401.269531 341.871094 401.480469 C 341.359375 401.691406 340.839844 401.878906 340.3125 402.039062 C 339.785156 402.199219 339.25 402.332031 338.710938 402.4375 C 338.167969 402.546875 337.621094 402.628906 337.074219 402.683594 C 336.523438 402.734375 335.972656 402.761719 335.421875 402.761719 L 228.070312 402.761719 C 227.527344 402.753906 226.980469 402.71875 226.4375 402.65625 C 225.894531 402.59375 225.359375 402.507812 224.824219 402.394531 C 224.289062 402.28125 223.761719 402.140625 223.242188 401.972656 C 222.722656 401.808594 222.210938 401.617188 221.707031 401.402344 C 221.207031 401.1875 220.714844 400.949219 220.234375 400.6875 C 219.757812 400.421875 219.292969 400.136719 218.839844 399.832031 C 218.390625 399.523438 217.953125 399.191406 217.535156 398.84375 C 217.117188 398.492188 216.714844 398.121094 216.332031 397.734375 C 215.949219 397.34375 215.585938 396.9375 215.242188 396.511719 C 214.898438 396.085938 214.578125 395.648438 214.277344 395.191406 C 213.976562 394.734375 213.699219 394.265625 213.441406 393.78125 C 213.1875 393.300781 212.957031 392.804688 212.75 392.300781 C 212.542969 391.792969 212.359375 391.28125 212.203125 390.757812 C 212.046875 390.234375 211.917969 389.703125 211.8125 389.167969 C 211.707031 388.632812 211.625 388.09375 211.574219 387.546875 C 211.519531 387.003906 211.492188 386.460938 211.492188 385.914062 L 211.492188 384.28125 C 211.492188 383.730469 211.519531 383.183594 211.574219 382.632812 C 211.628906 382.085938 211.710938 381.539062 211.816406 381 C 211.925781 380.457031 212.058594 379.925781 212.21875 379.398438 C 212.378906 378.871094 212.566406 378.351562 212.777344 377.84375 C 212.988281 377.332031 213.226562 376.835938 213.484375 376.351562 C 213.746094 375.863281 214.027344 375.394531 214.335938 374.933594 C 214.644531 374.476562 214.972656 374.035156 215.320312 373.609375 C 215.671875 373.183594 216.042969 372.777344 216.433594 372.386719 C 216.824219 372 217.230469 371.628906 217.660156 371.28125 C 218.085938 370.929688 218.527344 370.605469 218.988281 370.300781 C 219.445312 369.992188 219.917969 369.710938 220.40625 369.453125 C 220.890625 369.195312 221.390625 368.960938 221.898438 368.75 C 222.410156 368.539062 222.929688 368.355469 223.457031 368.199219 C 223.984375 368.039062 224.519531 367.90625 225.058594 367.800781 C 225.601562 367.695312 226.144531 367.617188 226.695312 367.5625 C 227.242188 367.511719 227.792969 367.484375 228.34375 367.488281 L 335.421875 367.488281 C 335.972656 367.484375 336.523438 367.511719 337.070312 367.5625 C 337.621094 367.617188 338.164062 367.695312 338.707031 367.800781 C 339.246094 367.90625 339.78125 368.039062 340.308594 368.199219 C 340.835938 368.355469 341.355469 368.539062 341.867188 368.75 C 342.375 368.960938 342.875 369.195312 343.359375 369.453125 C 343.847656 369.710938 344.320312 369.992188 344.777344 370.300781 C 345.238281 370.605469 345.679688 370.929688 346.105469 371.28125 C 346.535156 371.628906 346.941406 372 347.332031 372.386719 C 347.722656 372.777344 348.09375 373.183594 348.445312 373.609375 C 348.792969 374.035156 349.121094 374.476562 349.429688 374.933594 C 349.738281 375.394531 350.019531 375.863281 350.28125 376.351562 C 350.539062 376.835938 350.777344 377.332031 350.988281 377.84375 C 351.199219 378.351562 351.386719 378.871094 351.546875 379.398438 C 351.707031 379.925781 351.839844 380.457031 351.949219 381 C 352.054688 381.539062 352.136719 382.085938 352.191406 382.632812 C 352.246094 383.183594 352.273438 383.730469 352.273438 384.28125 Z M 433.367188 311.828125 C 433.367188 312.378906 433.339844 312.929688 433.285156 313.480469 C 433.234375 314.03125 433.152344 314.574219 433.042969 315.117188 C 432.9375 315.65625 432.804688 316.191406 432.640625 316.71875 C 432.480469 317.246094 432.296875 317.765625 432.085938 318.277344 C 431.875 318.785156 431.636719 319.285156 431.378906 319.773438 C 431.117188 320.257812 430.835938 320.730469 430.527344 321.191406 C 430.222656 321.648438 429.894531 322.089844 429.542969 322.519531 C 429.191406 322.945312 428.824219 323.351562 428.433594 323.742188 C 428.042969 324.132812 427.632812 324.503906 427.207031 324.855469 C 426.78125 325.203125 426.339844 325.53125 425.878906 325.839844 C 425.421875 326.144531 424.949219 326.429688 424.460938 326.6875 C 423.972656 326.949219 423.476562 327.183594 422.964844 327.394531 C 422.457031 327.605469 421.9375 327.792969 421.410156 327.953125 C 420.882812 328.113281 420.347656 328.246094 419.804688 328.355469 C 419.265625 328.460938 418.71875 328.542969 418.167969 328.597656 C 417.621094 328.652344 417.070312 328.679688 416.519531 328.679688 L 224.539062 328.679688 C 223.988281 328.679688 223.4375 328.652344 222.886719 328.597656 C 222.339844 328.542969 221.792969 328.460938 221.25 328.355469 C 220.710938 328.246094 220.175781 328.113281 219.648438 327.953125 C 219.121094 327.792969 218.601562 327.605469 218.089844 327.394531 C 217.582031 327.183594 217.082031 326.949219 216.597656 326.6875 C 216.109375 326.429688 215.636719 326.144531 215.179688 325.839844 C 214.71875 325.53125 214.277344 325.203125 213.851562 324.855469 C 213.421875 324.503906 213.015625 324.132812 212.625 323.742188 C 212.234375 323.351562 211.863281 322.945312 211.515625 322.519531 C 211.164062 322.089844 210.835938 321.648438 210.527344 321.191406 C 210.222656 320.730469 209.9375 320.257812 209.679688 319.773438 C 209.417969 319.285156 209.183594 318.785156 208.972656 318.277344 C 208.761719 317.765625 208.574219 317.246094 208.414062 316.71875 C 208.253906 316.191406 208.121094 315.65625 208.011719 315.117188 C 207.90625 314.574219 207.824219 314.03125 207.769531 313.480469 C 207.714844 312.929688 207.6875 312.378906 207.6875 311.828125 L 207.6875 310.253906 C 207.691406 309.703125 207.722656 309.15625 207.78125 308.609375 C 207.835938 308.0625 207.921875 307.519531 208.03125 306.980469 C 208.140625 306.441406 208.277344 305.910156 208.441406 305.386719 C 208.601562 304.859375 208.789062 304.34375 209.003906 303.835938 C 209.214844 303.332031 209.453125 302.835938 209.714844 302.351562 C 209.976562 301.867188 210.257812 301.398438 210.566406 300.941406 C 210.875 300.488281 211.203125 300.046875 211.550781 299.625 C 211.902344 299.199219 212.273438 298.796875 212.664062 298.40625 C 213.050781 298.019531 213.460938 297.652344 213.886719 297.304688 C 214.3125 296.957031 214.753906 296.632812 215.210938 296.328125 C 215.667969 296.023438 216.140625 295.742188 216.625 295.484375 C 217.109375 295.226562 217.609375 294.992188 218.117188 294.785156 C 218.625 294.574219 219.140625 294.390625 219.667969 294.230469 C 220.195312 294.070312 220.726562 293.9375 221.265625 293.832031 C 221.804688 293.726562 222.347656 293.644531 222.894531 293.589844 C 223.441406 293.539062 223.988281 293.511719 224.539062 293.511719 L 416.519531 293.511719 C 417.070312 293.511719 417.621094 293.539062 418.167969 293.59375 C 418.71875 293.644531 419.265625 293.726562 419.804688 293.835938 C 420.347656 293.941406 420.882812 294.078125 421.410156 294.238281 C 421.9375 294.398438 422.457031 294.582031 422.964844 294.792969 C 423.476562 295.003906 423.972656 295.242188 424.460938 295.5 C 424.949219 295.761719 425.421875 296.042969 425.878906 296.351562 C 426.339844 296.65625 426.78125 296.984375 427.207031 297.335938 C 427.632812 297.6875 428.042969 298.054688 428.433594 298.445312 C 428.824219 298.835938 429.191406 299.246094 429.542969 299.671875 C 429.894531 300.097656 430.222656 300.539062 430.527344 301 C 430.835938 301.457031 431.117188 301.929688 431.378906 302.417969 C 431.636719 302.90625 431.875 303.402344 432.085938 303.914062 C 432.296875 304.421875 432.480469 304.941406 432.644531 305.46875 C 432.804688 305.996094 432.9375 306.53125 433.042969 307.074219 C 433.152344 307.613281 433.234375 308.160156 433.285156 308.710938 C 433.339844 309.257812 433.367188 309.808594 433.367188 310.359375 Z M 433.367188 311.828125 " fill-opacity="1" fill-rule="nonzero"/></svg>