<svg xmlns="http://www.w3.org/2000/svg" xmlns:xlink="http://www.w3.org/1999/xlink" width="1080" zoomAndPan="magnify" viewBox="0 0 810 809.999993" height="1080" preserveAspectRatio="xMidYMid meet" version="1.0"><defs><clipPath id="c2701fb4ef"><path d="M 128 142 L 683.132812 142 L 683.132812 668.902344 L 128 668.902344 Z M 128 142 " clip-rule="nonzero"/></clipPath></defs><g clip-path="url(#c2701fb4ef)"><path fill="#da3368" d="M 193.664062 575.332031 C 176.09375 575.332031 159.824219 565.894531 151.039062 550.925781 L 135.09375 522.617188 C 128.585938 511.554688 126.632812 498.214844 130.214844 485.527344 C 133.46875 472.835938 141.601562 462.097656 152.992188 455.589844 L 183.25 438.019531 C 238.890625 394.09375 268.175781 337.480469 296.808594 269.148438 L 451.6875 537.261719 C 422.078125 533.683594 393.121094 530.753906 364.160156 530.753906 C 343.988281 530.753906 325.117188 532.054688 307.21875 534.984375 C 311.125 554.832031 302.988281 575.65625 285.746094 587.371094 L 301.039062 614.050781 C 305.917969 622.511719 307.21875 632.273438 304.617188 641.707031 C 302.015625 651.144531 295.832031 658.953125 287.371094 663.832031 C 281.839844 667.085938 275.332031 669.039062 268.824219 669.039062 C 255.808594 669.039062 243.769531 661.882812 237.261719 650.816406 Z M 670.34375 398.324219 L 512.207031 398.324219 C 505.050781 398.324219 499.191406 392.46875 499.191406 385.308594 C 499.191406 377.824219 505.050781 372.292969 512.207031 372.292969 L 670.34375 372.292969 C 677.5 372.292969 683.355469 377.824219 683.355469 385.308594 C 683.355469 392.46875 677.5 398.324219 670.34375 398.324219 Z M 476.417969 357.328125 C 471.859375 357.328125 467.632812 355.050781 465.027344 350.820312 C 461.449219 344.636719 463.726562 336.828125 469.910156 333.25 L 606.894531 253.855469 C 613.074219 250.277344 621.210938 252.554688 624.789062 258.738281 C 628.367188 264.917969 626.089844 273.054688 619.910156 276.632812 L 482.925781 355.699219 C 480.972656 356.675781 478.695312 357.328125 476.417969 357.328125 Z M 458.847656 305.917969 C 456.570312 305.917969 454.617188 305.265625 452.339844 304.289062 C 446.15625 300.710938 444.203125 292.578125 447.785156 286.394531 L 526.851562 149.410156 C 530.429688 143.226562 538.238281 140.949219 544.421875 144.527344 C 550.929688 148.109375 552.878906 156.242188 549.300781 162.425781 L 470.234375 299.410156 C 467.632812 303.640625 463.402344 305.917969 458.847656 305.917969 Z M 281.515625 540.515625 C 275.007812 542.140625 268.5 544.09375 261.992188 546.371094 L 272.730469 564.917969 C 279.886719 558.734375 283.140625 549.625 281.515625 540.515625 Z M 499.191406 553.53125 C 484.875 553.53125 471.535156 545.722656 464.378906 533.355469 L 306.570312 260.363281 C 301.363281 250.929688 300.0625 240.191406 302.664062 229.777344 C 305.59375 219.367188 312.101562 210.582031 321.535156 205.375 C 327.394531 201.796875 334.550781 199.84375 341.382812 199.84375 C 356.027344 199.84375 369.367188 207.652344 376.527344 220.015625 L 534.007812 493.007812 C 539.539062 502.445312 540.839844 513.183594 537.914062 523.59375 C 535.308594 534.007812 528.476562 542.792969 519.367188 548 C 513.183594 551.578125 506.351562 553.53125 499.191406 553.53125 Z M 499.191406 553.53125 " fill-opacity="1" fill-rule="evenodd"/></g></svg>