<svg xmlns="http://www.w3.org/2000/svg" xmlns:xlink="http://www.w3.org/1999/xlink" width="1080" zoomAndPan="magnify" viewBox="0 0 810 809.999993" height="1080" preserveAspectRatio="xMidYMid meet" version="1.0"><path fill="#000000" d="M 646.972656 439.539062 C 646.972656 421.667969 645.371094 404.480469 642.390625 387.984375 L 404.996094 387.984375 L 404.996094 485.484375 L 540.648438 485.484375 C 534.804688 516.992188 517.046875 543.6875 490.351562 561.5625 L 490.351562 624.804688 L 571.8125 624.804688 C 619.476562 580.921875 646.972656 516.304688 646.972656 439.539062 Z M 646.972656 439.539062 " fill-opacity="1" fill-rule="nonzero"/><path fill="#000000" d="M 404.996094 685.871094 C 473.050781 685.871094 530.109375 663.300781 571.8125 624.804688 L 490.351562 561.5625 C 467.78125 576.683594 438.910156 585.621094 404.996094 585.621094 C 339.34375 585.621094 283.777344 541.28125 263.957031 481.703125 L 179.746094 481.703125 L 179.746094 547.011719 C 221.222656 629.386719 306.464844 685.871094 404.996094 685.871094 Z M 404.996094 685.871094 " fill-opacity="1" fill-rule="nonzero"/><path fill="#000000" d="M 263.957031 481.703125 C 258.914062 466.578125 256.050781 450.425781 256.050781 433.8125 C 256.050781 417.199219 258.914062 401.042969 263.957031 385.921875 L 263.957031 320.613281 L 179.746094 320.613281 C 175.347656 329.367188 171.476562 338.34375 168.128906 347.546875 C 164.777344 356.75 161.976562 366.113281 159.71875 375.644531 C 157.460938 385.175781 155.765625 394.804688 154.632812 404.53125 C 153.496094 414.257812 152.929688 424.019531 152.933594 433.8125 C 152.933594 474.484375 162.675781 512.980469 179.746094 547.011719 Z M 263.957031 481.703125 " fill-opacity="1" fill-rule="nonzero"/><path fill="#000000" d="M 404.996094 282.003906 C 442.003906 282.003906 475.230469 294.722656 501.351562 319.699219 L 573.648438 247.402344 C 529.996094 206.730469 472.9375 181.753906 404.996094 181.753906 C 306.464844 181.753906 221.222656 238.238281 179.746094 320.613281 L 263.957031 385.921875 C 283.777344 326.34375 339.34375 282.003906 404.996094 282.003906 Z M 404.996094 282.003906 " fill-opacity="1" fill-rule="nonzero"/></svg>