<svg xmlns="http://www.w3.org/2000/svg" xmlns:xlink="http://www.w3.org/1999/xlink" width="1080" zoomAndPan="magnify" viewBox="0 0 810 809.999993" height="1080" preserveAspectRatio="xMidYMid meet" version="1.0"><defs><clipPath id="c129c13175"><path d="M 127 206.707031 L 597 206.707031 L 597 676 L 127 676 Z M 127 206.707031 " clip-rule="nonzero"/></clipPath></defs><path fill="#000000" d="M 654.644531 648.707031 C 655.238281 648.710938 655.824219 648.65625 656.40625 648.542969 C 656.992188 648.425781 657.558594 648.253906 658.105469 648.023438 C 658.652344 647.789062 659.171875 647.503906 659.660156 647.167969 C 660.148438 646.828125 660.597656 646.445312 661.007812 646.015625 C 661.417969 645.585938 661.78125 645.117188 662.09375 644.613281 C 662.40625 644.109375 662.667969 643.578125 662.871094 643.019531 C 663.078125 642.460938 663.222656 641.886719 663.308594 641.300781 C 663.398438 640.710938 663.421875 640.121094 663.390625 639.527344 C 663.390625 633.015625 659.464844 629.90625 651.410156 629.90625 L 638.394531 629.90625 L 638.394531 663.988281 L 643.292969 663.988281 L 643.292969 649.132812 L 649.308594 649.132812 L 649.445312 649.3125 L 658.777344 663.988281 L 664.011719 663.988281 L 653.96875 648.800781 Z M 648.980469 645.292969 L 643.304688 645.292969 L 643.304688 633.769531 L 650.5 633.769531 C 654.214844 633.769531 658.453125 634.375 658.453125 639.246094 C 658.453125 644.84375 654.164062 645.292969 648.953125 645.292969 " fill-opacity="1" fill-rule="nonzero"/><g clip-path="url(#c129c13175)"><path fill="#000000" d="M 526.960938 605.996094 L 457.554688 605.996094 L 457.554688 497.253906 C 457.554688 471.324219 457.089844 437.945312 421.457031 437.945312 C 385.304688 437.945312 379.773438 466.195312 379.773438 495.367188 L 379.773438 605.988281 L 310.367188 605.988281 L 310.367188 382.375 L 377 382.375 L 377 412.933594 L 377.929688 412.933594 C 379.589844 410.09375 381.433594 407.378906 383.460938 404.789062 C 385.484375 402.199219 387.675781 399.757812 390.03125 397.464844 C 392.386719 395.171875 394.886719 393.046875 397.527344 391.089844 C 400.171875 389.136719 402.929688 387.367188 405.8125 385.78125 C 408.695312 384.199219 411.667969 382.816406 414.734375 381.636719 C 417.804688 380.453125 420.933594 379.484375 424.132812 378.726562 C 427.332031 377.96875 430.566406 377.429688 433.839844 377.109375 C 437.109375 376.789062 440.390625 376.6875 443.671875 376.8125 C 514.019531 376.8125 526.992188 423.101562 526.992188 483.324219 Z M 232.050781 351.808594 C 230.734375 351.808594 229.417969 351.742188 228.105469 351.613281 C 226.792969 351.484375 225.488281 351.292969 224.191406 351.035156 C 222.898438 350.777344 221.621094 350.457031 220.359375 350.074219 C 219.097656 349.691406 217.855469 349.246094 216.636719 348.742188 C 215.417969 348.238281 214.226562 347.675781 213.0625 347.050781 C 211.902344 346.429688 210.769531 345.753906 209.671875 345.019531 C 208.574219 344.285156 207.519531 343.503906 206.496094 342.664062 C 205.476562 341.828125 204.5 340.941406 203.566406 340.011719 C 202.636719 339.078125 201.75 338.101562 200.914062 337.082031 C 200.078125 336.058594 199.292969 335 198.558594 333.90625 C 197.824219 332.808594 197.148438 331.675781 196.527344 330.511719 C 195.902344 329.347656 195.339844 328.15625 194.835938 326.9375 C 194.328125 325.71875 193.886719 324.480469 193.503906 323.214844 C 193.117188 321.953125 192.796875 320.675781 192.539062 319.378906 C 192.285156 318.085938 192.089844 316.78125 191.960938 315.46875 C 191.832031 314.15625 191.765625 312.839844 191.765625 311.519531 C 191.765625 310.199219 191.832031 308.882812 191.960938 307.570312 C 192.089844 306.257812 192.28125 304.953125 192.539062 303.65625 C 192.796875 302.363281 193.117188 301.085938 193.5 299.820312 C 193.882812 298.558594 194.324219 297.316406 194.828125 296.097656 C 195.335938 294.878906 195.898438 293.6875 196.519531 292.523438 C 197.140625 291.359375 197.816406 290.230469 198.550781 289.132812 C 199.285156 288.035156 200.066406 286.976562 200.90625 285.953125 C 201.742188 284.933594 202.625 283.957031 203.558594 283.023438 C 204.492188 282.089844 205.46875 281.207031 206.488281 280.367188 C 207.507812 279.53125 208.5625 278.746094 209.660156 278.011719 C 210.757812 277.277344 211.886719 276.601562 213.050781 275.980469 C 214.214844 275.355469 215.40625 274.792969 216.625 274.289062 C 217.84375 273.78125 219.082031 273.335938 220.34375 272.953125 C 221.605469 272.570312 222.886719 272.25 224.179688 271.992188 C 225.472656 271.734375 226.777344 271.542969 228.089844 271.410156 C 229.402344 271.28125 230.71875 271.21875 232.035156 271.21875 C 233.355469 271.21875 234.671875 271.28125 235.984375 271.410156 C 237.296875 271.539062 238.601562 271.734375 239.894531 271.988281 C 241.1875 272.246094 242.46875 272.566406 243.730469 272.949219 C 244.992188 273.332031 246.234375 273.777344 247.453125 274.28125 C 248.671875 274.785156 249.863281 275.351562 251.023438 275.972656 C 252.1875 276.59375 253.320312 277.269531 254.414062 278.003906 C 255.511719 278.738281 256.570312 279.523438 257.589844 280.359375 C 258.609375 281.195312 259.585938 282.082031 260.519531 283.015625 C 261.453125 283.945312 262.339844 284.921875 263.175781 285.945312 C 264.011719 286.964844 264.796875 288.023438 265.53125 289.121094 C 266.261719 290.214844 266.941406 291.347656 267.5625 292.511719 C 268.183594 293.675781 268.75 294.867188 269.253906 296.085938 C 269.757812 297.304688 270.203125 298.546875 270.585938 299.808594 C 270.96875 301.070312 271.289062 302.347656 271.546875 303.644531 C 271.804688 304.9375 272 306.242188 272.128906 307.554688 C 272.257812 308.867188 272.324219 310.183594 272.324219 311.503906 C 272.324219 312.824219 272.257812 314.140625 272.128906 315.453125 C 272 316.769531 271.808594 318.070312 271.550781 319.367188 C 271.292969 320.660156 270.972656 321.9375 270.589844 323.203125 C 270.207031 324.464844 269.765625 325.707031 269.257812 326.925781 C 268.753906 328.144531 268.191406 329.335938 267.570312 330.5 C 266.949219 331.664062 266.269531 332.796875 265.539062 333.894531 C 264.804688 334.988281 264.023438 336.050781 263.183594 337.070312 C 262.347656 338.089844 261.464844 339.066406 260.53125 340 C 259.597656 340.933594 258.621094 341.816406 257.601562 342.65625 C 256.582031 343.492188 255.523438 344.277344 254.425781 345.011719 C 253.332031 345.746094 252.203125 346.421875 251.039062 347.046875 C 249.875 347.667969 248.683594 348.230469 247.464844 348.738281 C 246.246094 349.242188 245.007812 349.6875 243.742188 350.070312 C 242.480469 350.453125 241.203125 350.773438 239.910156 351.03125 C 238.617188 351.289062 237.3125 351.480469 236 351.613281 C 234.6875 351.742188 233.371094 351.804688 232.050781 351.808594 M 266.753906 605.996094 L 197.277344 605.996094 L 197.277344 382.375 L 266.753906 382.375 Z M 561.566406 206.734375 L 162.398438 206.734375 C 161.277344 206.722656 160.164062 206.765625 159.046875 206.863281 C 157.933594 206.960938 156.824219 207.109375 155.726562 207.316406 C 154.625 207.523438 153.539062 207.78125 152.464844 208.09375 C 151.390625 208.40625 150.335938 208.769531 149.296875 209.1875 C 148.257812 209.605469 147.242188 210.070312 146.25 210.585938 C 145.253906 211.101562 144.289062 211.667969 143.351562 212.277344 C 142.414062 212.886719 141.511719 213.542969 140.636719 214.242188 C 139.761719 214.945312 138.925781 215.683594 138.125 216.46875 C 137.328125 217.25 136.566406 218.070312 135.847656 218.925781 C 135.125 219.78125 134.449219 220.671875 133.816406 221.597656 C 133.183594 222.519531 132.597656 223.472656 132.058594 224.453125 C 131.519531 225.433594 131.03125 226.4375 130.589844 227.464844 C 130.148438 228.496094 129.761719 229.542969 129.421875 230.609375 C 129.085938 231.679688 128.800781 232.757812 128.566406 233.855469 C 128.335938 234.949219 128.160156 236.054688 128.035156 237.164062 C 127.914062 238.277344 127.84375 239.394531 127.832031 240.511719 L 127.832031 641.5 C 127.84375 642.621094 127.914062 643.738281 128.035156 644.851562 C 128.160156 645.964844 128.335938 647.066406 128.566406 648.164062 C 128.796875 649.257812 129.082031 650.339844 129.417969 651.410156 C 129.757812 652.476562 130.144531 653.527344 130.585938 654.554688 C 131.027344 655.585938 131.515625 656.589844 132.054688 657.574219 C 132.59375 658.554688 133.179688 659.507812 133.8125 660.429688 C 134.445312 661.355469 135.121094 662.246094 135.839844 663.101562 C 136.558594 663.960938 137.320312 664.78125 138.121094 665.5625 C 138.921875 666.347656 139.757812 667.089844 140.632812 667.789062 C 141.503906 668.492188 142.410156 669.148438 143.347656 669.757812 C 144.285156 670.371094 145.25 670.933594 146.242188 671.453125 C 147.234375 671.96875 148.253906 672.4375 149.289062 672.851562 C 150.328125 673.269531 151.386719 673.636719 152.460938 673.949219 C 153.535156 674.261719 154.625 674.523438 155.722656 674.730469 C 156.824219 674.9375 157.929688 675.089844 159.046875 675.1875 C 160.160156 675.285156 161.277344 675.328125 162.398438 675.316406 L 561.566406 675.316406 C 562.6875 675.328125 563.804688 675.289062 564.921875 675.191406 C 566.039062 675.097656 567.152344 674.945312 568.253906 674.742188 C 569.355469 674.535156 570.445312 674.277344 571.523438 673.964844 C 572.601562 673.652344 573.660156 673.289062 574.703125 672.875 C 575.742188 672.457031 576.761719 671.992188 577.757812 671.476562 C 578.753906 670.960938 579.722656 670.394531 580.664062 669.785156 C 581.605469 669.171875 582.511719 668.515625 583.390625 667.816406 C 584.265625 667.117188 585.105469 666.375 585.910156 665.59375 C 586.710938 664.808594 587.476562 663.988281 588.199219 663.128906 C 588.921875 662.273438 589.601562 661.382812 590.238281 660.457031 C 590.871094 659.53125 591.460938 658.578125 592.003906 657.597656 C 592.546875 656.613281 593.039062 655.605469 593.480469 654.574219 C 593.925781 653.546875 594.316406 652.496094 594.65625 651.425781 C 594.996094 650.355469 595.285156 649.273438 595.519531 648.175781 C 595.753906 647.078125 595.933594 645.972656 596.058594 644.855469 C 596.183594 643.742188 596.253906 642.625 596.269531 641.5 L 596.269531 240.484375 C 596.253906 239.363281 596.183594 238.246094 596.054688 237.128906 C 595.929688 236.015625 595.75 234.910156 595.515625 233.8125 C 595.28125 232.714844 594.992188 231.632812 594.652344 230.566406 C 594.3125 229.496094 593.921875 228.445312 593.476562 227.417969 C 593.035156 226.386719 592.542969 225.378906 592 224.398438 C 591.457031 223.417969 590.867188 222.464844 590.230469 221.539062 C 589.597656 220.617188 588.917969 219.726562 588.195312 218.871094 C 587.46875 218.011719 586.707031 217.191406 585.902344 216.410156 C 585.101562 215.628906 584.261719 214.886719 583.382812 214.1875 C 582.507812 213.488281 581.601562 212.832031 580.660156 212.222656 C 579.71875 211.613281 578.75 211.050781 577.753906 210.535156 C 576.757812 210.019531 575.738281 209.554688 574.699219 209.136719 C 573.65625 208.722656 572.597656 208.359375 571.519531 208.050781 C 570.445312 207.738281 569.355469 207.480469 568.25 207.277344 C 567.148438 207.070312 566.039062 206.921875 564.921875 206.828125 C 563.804688 206.730469 562.6875 206.691406 561.566406 206.707031 " fill-opacity="1" fill-rule="nonzero"/></g><path fill="#000000" d="M 649.574219 614.722656 C 648.878906 614.730469 648.1875 614.761719 647.492188 614.8125 C 646.800781 614.863281 646.109375 614.9375 645.421875 615.035156 C 644.734375 615.132812 644.046875 615.253906 643.367188 615.394531 C 642.6875 615.535156 642.011719 615.699219 641.34375 615.886719 C 640.671875 616.070312 640.011719 616.28125 639.355469 616.507812 C 638.699219 616.738281 638.050781 616.988281 637.410156 617.257812 C 636.769531 617.53125 636.140625 617.824219 635.519531 618.136719 C 634.898438 618.449219 634.289062 618.78125 633.6875 619.132812 C 633.089844 619.484375 632.503906 619.859375 631.929688 620.25 C 631.355469 620.640625 630.792969 621.046875 630.246094 621.476562 C 629.695312 621.902344 629.164062 622.347656 628.644531 622.808594 C 628.125 623.273438 627.621094 623.75 627.132812 624.246094 C 626.644531 624.742188 626.175781 625.253906 625.71875 625.777344 C 625.265625 626.304688 624.828125 626.84375 624.40625 627.398438 C 623.988281 627.953125 623.589844 628.519531 623.207031 629.101562 C 622.824219 629.679688 622.460938 630.273438 622.117188 630.878906 C 621.773438 631.484375 621.449219 632.097656 621.144531 632.722656 C 620.84375 633.347656 620.558594 633.984375 620.296875 634.628906 C 620.035156 635.269531 619.796875 635.921875 619.574219 636.582031 C 619.355469 637.242188 619.160156 637.910156 618.984375 638.582031 C 618.804688 639.253906 618.652344 639.929688 618.519531 640.613281 C 618.390625 641.296875 618.28125 641.984375 618.191406 642.671875 C 618.105469 643.363281 618.042969 644.054688 618 644.75 C 617.957031 645.441406 617.9375 646.136719 617.941406 646.832031 C 617.941406 647.527344 617.96875 648.222656 618.019531 648.914062 C 618.066406 649.609375 618.136719 650.300781 618.230469 650.988281 C 618.328125 651.675781 618.441406 652.363281 618.582031 653.042969 C 618.71875 653.726562 618.878906 654.402344 619.0625 655.074219 C 619.246094 655.742188 619.449219 656.40625 619.675781 657.066406 C 619.902344 657.722656 620.148438 658.371094 620.414062 659.011719 C 620.683594 659.65625 620.972656 660.285156 621.28125 660.910156 C 621.59375 661.53125 621.921875 662.144531 622.269531 662.746094 C 622.617188 663.34375 622.988281 663.933594 623.375 664.511719 C 623.765625 665.089844 624.167969 665.652344 624.59375 666.203125 C 625.019531 666.753906 625.460938 667.289062 625.921875 667.808594 C 626.378906 668.332031 626.855469 668.839844 627.347656 669.328125 C 627.839844 669.820312 628.347656 670.292969 628.871094 670.75 C 629.394531 671.207031 629.933594 671.648438 630.488281 672.070312 C 631.039062 672.492188 631.605469 672.894531 632.183594 673.28125 C 632.761719 673.664062 633.351562 674.03125 633.953125 674.378906 C 634.558594 674.722656 635.171875 675.050781 635.792969 675.359375 C 636.417969 675.664062 637.050781 675.949219 637.691406 676.214844 C 638.335938 676.480469 638.984375 676.726562 639.644531 676.949219 C 640.304688 677.171875 640.96875 677.371094 641.640625 677.550781 C 642.3125 677.730469 642.988281 677.886719 643.671875 678.023438 C 644.351562 678.160156 645.035156 678.269531 645.726562 678.363281 C 646.414062 678.453125 647.105469 678.519531 647.796875 678.566406 C 648.492188 678.609375 649.1875 678.632812 649.878906 678.632812 C 650.574219 678.632812 651.269531 678.609375 651.964844 678.566406 C 652.65625 678.519531 653.347656 678.453125 654.039062 678.363281 C 654.726562 678.273438 655.414062 678.160156 656.09375 678.023438 C 656.777344 677.886719 657.453125 677.730469 658.125 677.550781 C 658.796875 677.371094 659.460938 677.171875 660.121094 676.949219 C 660.777344 676.726562 661.429688 676.480469 662.070312 676.214844 C 662.710938 675.949219 663.347656 675.664062 663.96875 675.359375 C 664.59375 675.050781 665.207031 674.726562 665.808594 674.378906 C 666.410156 674.03125 667 673.664062 667.578125 673.28125 C 668.15625 672.894531 668.722656 672.492188 669.273438 672.070312 C 669.828125 671.648438 670.363281 671.207031 670.890625 670.75 C 671.414062 670.292969 671.921875 669.820312 672.414062 669.328125 C 672.90625 668.839844 673.382812 668.332031 673.839844 667.8125 C 674.300781 667.289062 674.742188 666.753906 675.167969 666.203125 C 675.59375 665.652344 676 665.089844 676.386719 664.511719 C 676.773438 663.933594 677.144531 663.347656 677.492188 662.746094 C 677.839844 662.144531 678.171875 661.53125 678.480469 660.910156 C 678.789062 660.289062 679.078125 659.65625 679.347656 659.015625 C 679.617188 658.371094 679.863281 657.722656 680.089844 657.066406 C 680.316406 656.410156 680.519531 655.742188 680.699219 655.074219 C 680.882812 654.402344 681.042969 653.726562 681.183594 653.046875 C 681.320312 652.363281 681.4375 651.679688 681.53125 650.988281 C 681.625 650.300781 681.695312 649.609375 681.746094 648.914062 C 681.792969 648.222656 681.820312 647.527344 681.824219 646.832031 C 681.828125 646.136719 681.808594 645.441406 681.765625 644.75 C 681.722656 644.054688 681.660156 643.363281 681.570312 642.671875 C 681.484375 641.984375 681.375 641.296875 681.242188 640.613281 C 681.113281 639.933594 680.957031 639.253906 680.78125 638.582031 C 680.605469 637.910156 680.40625 637.242188 680.1875 636.582031 C 679.96875 635.921875 679.726562 635.273438 679.464844 634.628906 C 679.203125 633.984375 678.921875 633.347656 678.617188 632.722656 C 678.3125 632.097656 677.988281 631.484375 677.644531 630.878906 C 677.300781 630.273438 676.9375 629.683594 676.558594 629.101562 C 676.175781 628.519531 675.773438 627.953125 675.355469 627.398438 C 674.933594 626.84375 674.5 626.304688 674.042969 625.777344 C 673.589844 625.253906 673.117188 624.742188 672.628906 624.246094 C 672.140625 623.75 671.640625 623.273438 671.121094 622.8125 C 670.601562 622.347656 670.066406 621.902344 669.519531 621.476562 C 668.96875 621.046875 668.410156 620.640625 667.835938 620.25 C 667.261719 619.859375 666.671875 619.484375 666.074219 619.132812 C 665.472656 618.78125 664.863281 618.449219 664.242188 618.136719 C 663.625 617.824219 662.992188 617.53125 662.351562 617.261719 C 661.714844 616.988281 661.066406 616.738281 660.410156 616.507812 C 659.753906 616.28125 659.089844 616.074219 658.421875 615.886719 C 657.75 615.699219 657.078125 615.535156 656.398438 615.394531 C 655.714844 615.253906 655.03125 615.132812 654.34375 615.035156 C 653.65625 614.9375 652.964844 614.863281 652.273438 614.8125 C 651.578125 614.761719 650.882812 614.730469 650.1875 614.722656 L 649.574219 614.722656 M 649.574219 674.976562 C 648.65625 674.988281 647.742188 674.960938 646.828125 674.886719 C 645.910156 674.8125 645.003906 674.691406 644.101562 674.527344 C 643.199219 674.363281 642.304688 674.15625 641.425781 673.902344 C 640.542969 673.652344 639.675781 673.359375 638.820312 673.019531 C 637.96875 672.683594 637.132812 672.304688 636.316406 671.886719 C 635.5 671.46875 634.707031 671.007812 633.9375 670.511719 C 633.164062 670.015625 632.421875 669.480469 631.703125 668.910156 C 630.984375 668.339844 630.292969 667.738281 629.636719 667.097656 C 628.976562 666.460938 628.351562 665.792969 627.753906 665.09375 C 627.160156 664.390625 626.605469 663.664062 626.082031 662.910156 C 625.558594 662.15625 625.074219 661.378906 624.628906 660.578125 C 624.183594 659.773438 623.777344 658.953125 623.414062 658.109375 C 623.046875 657.269531 622.722656 656.410156 622.445312 655.535156 C 622.164062 654.664062 621.925781 653.777344 621.730469 652.882812 C 621.539062 651.984375 621.390625 651.078125 621.285156 650.167969 C 621.179688 649.257812 621.117188 648.34375 621.105469 647.425781 C 621.089844 646.507812 621.117188 645.589844 621.191406 644.675781 C 621.265625 643.761719 621.386719 642.851562 621.550781 641.949219 C 621.714844 641.046875 621.921875 640.152344 622.175781 639.273438 C 622.425781 638.390625 622.71875 637.519531 623.058594 636.667969 C 623.394531 635.8125 623.773438 634.980469 624.191406 634.164062 C 624.609375 633.347656 625.066406 632.550781 625.5625 631.78125 C 626.0625 631.007812 626.59375 630.265625 627.164062 629.546875 C 627.734375 628.828125 628.339844 628.136719 628.976562 627.476562 C 629.613281 626.816406 630.28125 626.191406 630.980469 625.597656 C 631.679688 625.003906 632.40625 624.445312 633.164062 623.921875 C 633.914062 623.398438 634.695312 622.914062 635.496094 622.46875 C 636.296875 622.023438 637.117188 621.617188 637.960938 621.253906 C 638.800781 620.886719 639.660156 620.5625 640.53125 620.28125 C 641.40625 620.003906 642.289062 619.765625 643.1875 619.570312 C 644.085938 619.375 644.988281 619.226562 645.898438 619.121094 C 646.8125 619.015625 647.726562 618.957031 648.640625 618.941406 C 649.558594 618.925781 650.476562 618.957031 651.386719 619.03125 C 652.304688 619.105469 653.210938 619.226562 654.113281 619.390625 C 655.015625 619.554688 655.910156 619.761719 656.792969 620.011719 C 657.671875 620.265625 658.539062 620.558594 659.394531 620.894531 C 660.246094 621.234375 661.082031 621.609375 661.898438 622.03125 C 662.714844 622.449219 663.507812 622.90625 664.277344 623.402344 C 665.046875 623.902344 665.792969 624.433594 666.511719 625.003906 C 667.230469 625.574219 667.921875 626.179688 668.582031 626.816406 C 669.238281 627.457031 669.867188 628.125 670.460938 628.824219 C 671.050781 629.523438 671.609375 630.25 672.132812 631.003906 C 672.65625 631.757812 673.140625 632.539062 673.585938 633.339844 C 674.03125 634.140625 674.4375 634.964844 674.800781 635.804688 C 675.167969 636.648438 675.488281 637.503906 675.773438 638.378906 C 676.050781 639.253906 676.289062 640.136719 676.484375 641.035156 C 676.675781 641.929688 676.828125 642.835938 676.933594 643.746094 C 677.039062 644.660156 677.097656 645.574219 677.113281 646.492188 C 677.113281 646.652344 677.113281 646.800781 677.113281 646.960938 C 677.132812 647.859375 677.105469 648.757812 677.039062 649.652344 C 676.96875 650.546875 676.855469 651.4375 676.699219 652.320312 C 676.542969 653.203125 676.347656 654.078125 676.101562 654.941406 C 675.859375 655.808594 675.578125 656.65625 675.25 657.496094 C 674.925781 658.332031 674.5625 659.152344 674.15625 659.953125 C 673.75 660.75 673.304688 661.53125 672.824219 662.289062 C 672.339844 663.042969 671.820312 663.777344 671.265625 664.484375 C 670.710938 665.1875 670.125 665.867188 669.503906 666.515625 C 668.882812 667.164062 668.234375 667.78125 667.550781 668.363281 C 666.871094 668.949219 666.160156 669.496094 665.425781 670.011719 C 664.691406 670.527344 663.929688 671.003906 663.148438 671.445312 C 662.367188 671.886719 661.566406 672.285156 660.746094 672.648438 C 659.921875 673.007812 659.085938 673.328125 658.230469 673.609375 C 657.378906 673.886719 656.515625 674.125 655.636719 674.316406 C 654.761719 674.511719 653.878906 674.664062 652.988281 674.769531 C 652.097656 674.878906 651.203125 674.941406 650.304688 674.960938 L 649.582031 674.960938 " fill-opacity="1" fill-rule="nonzero"/></svg>