<svg xmlns="http://www.w3.org/2000/svg" xmlns:xlink="http://www.w3.org/1999/xlink" width="1080" zoomAndPan="magnify" viewBox="0 0 810 809.999993" height="1080" preserveAspectRatio="xMidYMid meet" version="1.0"><defs><clipPath id="12efc493a9"><path d="M 108.3125 108.3125 L 701.5625 108.3125 L 701.5625 701.5625 L 108.3125 701.5625 Z M 108.3125 108.3125 " clip-rule="nonzero"/></clipPath></defs><g clip-path="url(#12efc493a9)"><path fill="#da3368" d="M 367.910156 182.484375 C 367.910156 175.066406 362.964844 170.121094 355.546875 170.121094 L 182.484375 170.121094 C 175.066406 170.121094 170.121094 175.066406 170.121094 182.484375 L 170.121094 355.546875 C 170.121094 362.964844 175.066406 367.910156 182.484375 367.910156 L 355.546875 367.910156 C 362.964844 367.910156 367.910156 362.964844 367.910156 355.546875 Z M 343.1875 343.1875 L 194.84375 343.1875 L 194.84375 194.84375 L 343.1875 194.84375 Z M 355.546875 442.082031 L 182.484375 442.082031 C 175.066406 442.082031 170.121094 447.027344 170.121094 454.441406 L 170.121094 627.507812 C 170.121094 634.925781 175.066406 639.871094 182.484375 639.871094 L 355.546875 639.871094 C 362.964844 639.871094 367.910156 634.925781 367.910156 627.507812 L 367.910156 454.441406 C 367.910156 447.027344 362.964844 442.082031 355.546875 442.082031 Z M 343.1875 615.144531 L 194.84375 615.144531 L 194.84375 466.804688 L 343.1875 466.804688 Z M 627.507812 170.121094 L 454.441406 170.121094 C 447.023438 170.121094 442.082031 175.066406 442.082031 182.484375 L 442.082031 355.546875 C 442.082031 362.964844 447.023438 367.910156 454.441406 367.910156 L 627.507812 367.910156 C 634.925781 367.910156 639.871094 362.964844 639.871094 355.546875 L 639.871094 182.484375 C 639.871094 175.066406 634.925781 170.121094 627.507812 170.121094 Z M 615.144531 343.1875 L 466.804688 343.1875 L 466.804688 194.84375 L 615.144531 194.84375 Z M 355.546875 392.632812 L 182.484375 392.632812 C 175.066406 392.632812 170.121094 397.578125 170.121094 404.996094 C 170.121094 412.414062 175.066406 417.355469 182.484375 417.355469 L 355.546875 417.355469 C 362.964844 417.355469 367.910156 412.414062 367.910156 404.996094 C 367.910156 397.578125 362.964844 392.632812 355.546875 392.632812 Z M 404.996094 367.910156 C 412.414062 367.910156 417.355469 362.964844 417.355469 355.546875 L 417.355469 182.484375 C 417.355469 175.066406 412.414062 170.121094 404.996094 170.121094 C 397.578125 170.121094 392.632812 175.066406 392.632812 182.484375 L 392.632812 355.546875 C 392.632812 362.964844 397.578125 367.910156 404.996094 367.910156 Z M 231.929688 318.460938 L 306.101562 318.460938 C 313.519531 318.460938 318.460938 313.519531 318.460938 306.101562 L 318.460938 231.929688 C 318.460938 224.511719 313.519531 219.566406 306.101562 219.566406 L 231.929688 219.566406 C 224.511719 219.566406 219.566406 224.511719 219.566406 231.929688 L 219.566406 306.101562 C 219.566406 313.519531 224.511719 318.460938 231.929688 318.460938 Z M 244.292969 244.292969 L 293.738281 244.292969 L 293.738281 293.738281 L 244.292969 293.738281 Z M 231.929688 590.421875 L 306.101562 590.421875 C 313.519531 590.421875 318.460938 585.476562 318.460938 578.0625 L 318.460938 503.890625 C 318.460938 496.472656 313.519531 491.527344 306.101562 491.527344 L 231.929688 491.527344 C 224.511719 491.527344 219.566406 496.472656 219.566406 503.890625 L 219.566406 578.0625 C 219.566406 585.476562 224.511719 590.421875 231.929688 590.421875 Z M 244.292969 516.25 L 293.738281 516.25 L 293.738281 565.699219 L 244.292969 565.699219 Z M 503.890625 318.460938 L 578.0625 318.460938 C 585.476562 318.460938 590.421875 313.519531 590.421875 306.101562 L 590.421875 231.929688 C 590.421875 224.511719 585.476562 219.566406 578.0625 219.566406 L 503.890625 219.566406 C 496.472656 219.566406 491.527344 224.511719 491.527344 231.929688 L 491.527344 306.101562 C 491.527344 313.519531 496.472656 318.460938 503.890625 318.460938 Z M 516.25 244.292969 L 565.699219 244.292969 L 565.699219 293.738281 L 516.25 293.738281 Z M 553.335938 540.976562 C 545.921875 540.976562 540.976562 545.921875 540.976562 553.335938 L 540.976562 627.507812 C 540.976562 634.925781 545.921875 639.871094 553.335938 639.871094 L 627.507812 639.871094 C 634.925781 639.871094 639.871094 634.925781 639.871094 627.507812 L 639.871094 553.335938 C 639.871094 545.921875 634.925781 540.976562 627.507812 540.976562 Z M 615.144531 615.144531 L 565.699219 615.144531 L 565.699219 565.699219 L 615.144531 565.699219 Z M 652.230469 503.890625 C 652.230469 496.472656 647.285156 491.527344 639.871094 491.527344 L 503.890625 491.527344 C 496.472656 491.527344 491.527344 496.472656 491.527344 503.890625 L 491.527344 627.507812 C 491.527344 634.925781 496.472656 639.871094 503.890625 639.871094 C 511.308594 639.871094 516.25 634.925781 516.25 627.507812 L 516.25 516.25 L 639.871094 516.25 C 647.285156 516.25 652.230469 511.308594 652.230469 503.890625 Z M 639.871094 454.441406 L 639.871094 404.996094 C 639.871094 397.578125 634.925781 392.632812 627.507812 392.632812 C 620.089844 392.632812 615.144531 397.578125 615.144531 404.996094 L 615.144531 454.441406 C 615.144531 461.859375 620.089844 466.804688 627.507812 466.804688 C 634.925781 466.804688 639.871094 461.859375 639.871094 454.441406 Z M 404.996094 639.871094 L 454.441406 639.871094 C 461.859375 639.871094 466.804688 634.925781 466.804688 627.507812 L 466.804688 417.355469 L 578.0625 417.355469 C 585.476562 417.355469 590.421875 412.414062 590.421875 404.996094 C 590.421875 397.578125 585.476562 392.632812 578.0625 392.632812 L 454.441406 392.632812 C 447.023438 392.632812 442.082031 397.578125 442.082031 404.996094 L 442.082031 615.144531 L 404.996094 615.144531 C 397.578125 615.144531 392.632812 620.089844 392.632812 627.507812 C 392.632812 634.925781 397.578125 639.871094 404.996094 639.871094 Z M 503.890625 466.804688 L 578.0625 466.804688 C 585.476562 466.804688 590.421875 461.859375 590.421875 454.441406 C 590.421875 447.027344 585.476562 442.082031 578.0625 442.082031 L 503.890625 442.082031 C 496.472656 442.082031 491.527344 447.027344 491.527344 454.441406 C 491.527344 461.859375 496.472656 466.804688 503.890625 466.804688 Z M 392.632812 590.421875 C 392.632812 597.839844 397.578125 602.785156 404.996094 602.785156 C 412.414062 602.785156 417.355469 597.839844 417.355469 590.421875 L 417.355469 404.996094 C 417.355469 397.578125 412.414062 392.632812 404.996094 392.632812 C 397.578125 392.632812 392.632812 397.578125 392.632812 404.996094 Z M 120.671875 256.652344 C 128.089844 256.652344 133.035156 251.707031 133.035156 244.292969 L 133.035156 170.121094 C 133.035156 149.105469 149.105469 133.035156 170.121094 133.035156 L 244.292969 133.035156 C 251.707031 133.035156 256.652344 128.089844 256.652344 120.671875 C 256.652344 113.257812 251.707031 108.3125 244.292969 108.3125 L 170.121094 108.3125 C 135.507812 108.3125 108.3125 135.507812 108.3125 170.121094 L 108.3125 244.292969 C 108.3125 251.707031 113.257812 256.652344 120.671875 256.652344 Z M 639.871094 108.3125 L 565.699219 108.3125 C 558.28125 108.3125 553.335938 113.257812 553.335938 120.671875 C 553.335938 128.089844 558.28125 133.035156 565.699219 133.035156 L 639.871094 133.035156 C 660.886719 133.035156 676.957031 149.105469 676.957031 170.121094 L 676.957031 244.292969 C 676.957031 251.707031 681.898438 256.652344 689.316406 256.652344 C 696.734375 256.652344 701.679688 251.707031 701.679688 244.292969 L 701.679688 170.121094 C 701.679688 135.507812 674.484375 108.3125 639.871094 108.3125 Z M 170.121094 701.679688 L 244.292969 701.679688 C 251.707031 701.679688 256.652344 696.734375 256.652344 689.316406 C 256.652344 681.898438 251.707031 676.957031 244.292969 676.957031 L 170.121094 676.957031 C 149.105469 676.957031 133.035156 660.886719 133.035156 639.871094 L 133.035156 565.699219 C 133.035156 558.28125 128.089844 553.335938 120.671875 553.335938 C 113.257812 553.335938 108.3125 558.28125 108.3125 565.699219 L 108.3125 639.871094 C 108.3125 674.484375 135.507812 701.679688 170.121094 701.679688 Z M 689.316406 553.335938 C 681.898438 553.335938 676.957031 558.28125 676.957031 565.699219 L 676.957031 639.871094 C 676.957031 660.886719 660.886719 676.957031 639.871094 676.957031 L 565.699219 676.957031 C 558.28125 676.957031 553.335938 681.898438 553.335938 689.316406 C 553.335938 696.734375 558.28125 701.679688 565.699219 701.679688 L 639.871094 701.679688 C 674.484375 701.679688 701.679688 674.484375 701.679688 639.871094 L 701.679688 565.699219 C 701.679688 558.28125 696.734375 553.335938 689.316406 553.335938 Z M 689.316406 553.335938 " fill-opacity="1" fill-rule="nonzero"/></g></svg>