<svg xmlns="http://www.w3.org/2000/svg" xmlns:xlink="http://www.w3.org/1999/xlink" width="1080" zoomAndPan="magnify" viewBox="0 0 810 809.999993" height="1080" preserveAspectRatio="xMidYMid meet" version="1.0"><path fill="#da3368" d="M 404.996094 531.128906 C 376.015625 531.128906 352.261719 554.882812 352.261719 583.863281 C 352.261719 612.84375 376.015625 636.597656 404.996094 636.597656 C 433.972656 636.597656 457.726562 612.84375 457.726562 583.863281 C 457.726562 554.410156 433.972656 531.128906 404.996094 531.128906 Z M 404.996094 531.128906 " fill-opacity="1" fill-rule="nonzero"/><path fill="#da3368" d="M 404.996094 406.1875 C 356.539062 406.1875 310.929688 425.1875 276.726562 458.917969 C 262.949219 472.695312 262.949219 495.023438 276.726562 508.800781 C 283.375 515.453125 292.402344 519.253906 301.902344 519.253906 C 311.40625 519.253906 320.433594 515.453125 327.082031 508.800781 C 347.984375 487.898438 375.539062 476.496094 404.996094 476.496094 C 434.449219 476.496094 462.476562 487.898438 483.382812 508.800781 C 490.03125 515.453125 499.058594 519.253906 508.558594 519.253906 C 518.0625 519.253906 527.085938 515.453125 533.738281 508.800781 C 547.515625 495.023438 547.515625 472.695312 533.738281 458.917969 C 499.058594 425.1875 453.453125 406.1875 404.996094 406.1875 Z M 404.996094 406.1875 " fill-opacity="1" fill-rule="nonzero"/><path fill="#da3368" d="M 698.589844 295.019531 C 620.203125 216.632812 515.6875 173.402344 404.996094 173.402344 C 294.304688 173.402344 189.789062 216.15625 111.402344 294.542969 C 97.625 308.320312 97.625 330.648438 111.402344 344.425781 C 118.050781 351.078125 127.078125 354.878906 136.578125 354.878906 C 146.082031 354.878906 155.105469 351.078125 161.757812 344.425781 C 226.367188 279.816406 312.832031 244.1875 404.996094 244.1875 C 497.160156 244.1875 583.621094 279.816406 648.707031 344.902344 C 655.355469 351.554688 664.382812 355.355469 673.886719 355.355469 C 683.386719 355.355469 692.414062 351.554688 699.0625 344.902344 C 712.367188 331.125 712.367188 308.796875 698.589844 295.019531 Z M 698.589844 295.019531 " fill-opacity="1" fill-rule="nonzero"/><path fill="#da3368" d="M 404.996094 292.644531 C 326.132812 292.644531 252.023438 323.050781 195.964844 378.632812 C 189.3125 385.285156 185.511719 394.308594 185.511719 403.8125 C 185.511719 413.3125 189.3125 422.339844 195.964844 428.988281 C 202.613281 435.640625 211.640625 439.441406 221.140625 439.441406 C 230.644531 439.441406 239.667969 435.640625 246.320312 428.988281 C 288.601562 386.707031 345.136719 363.429688 404.996094 363.429688 C 464.851562 363.429688 521.386719 386.707031 563.667969 428.988281 C 570.320312 435.640625 579.34375 439.441406 588.847656 439.441406 C 598.347656 439.441406 607.375 435.640625 614.027344 428.988281 C 620.675781 422.339844 624.476562 413.3125 624.476562 403.8125 C 624.476562 394.308594 620.675781 385.28125 614.027344 378.632812 C 557.96875 323.523438 483.855469 292.644531 404.996094 292.644531 Z M 404.996094 292.644531 " fill-opacity="1" fill-rule="nonzero"/></svg>