<svg xmlns="http://www.w3.org/2000/svg" xmlns:xlink="http://www.w3.org/1999/xlink" width="1080" zoomAndPan="magnify" viewBox="0 0 810 809.999993" height="1080" preserveAspectRatio="xMidYMid meet" version="1.0"><defs><clipPath id="aab6a31309"><path d="M 134 214.707031 L 676 214.707031 L 676 594.957031 L 134 594.957031 Z M 134 214.707031 " clip-rule="nonzero"/></clipPath></defs><g clip-path="url(#aab6a31309)"><path fill="#000000" d="M 663.796875 274.136719 C 657.582031 250.742188 639.28125 232.320312 616.039062 226.070312 C 573.914062 214.707031 404.996094 214.707031 404.996094 214.707031 C 404.996094 214.707031 236.078125 214.707031 193.953125 226.070312 C 170.710938 232.320312 152.40625 250.742188 146.195312 274.136719 C 134.90625 316.535156 134.90625 404.996094 134.90625 404.996094 C 134.90625 404.996094 134.90625 493.457031 146.195312 535.859375 C 152.40625 559.25 170.710938 577.671875 193.953125 583.925781 C 236.078125 595.285156 404.996094 595.285156 404.996094 595.285156 C 404.996094 595.285156 573.914062 595.285156 616.039062 583.925781 C 639.28125 577.671875 657.582031 559.25 663.796875 535.859375 C 675.082031 493.457031 675.082031 404.996094 675.082031 404.996094 C 675.082031 404.996094 675.082031 316.535156 663.796875 274.136719 " fill-opacity="1" fill-rule="nonzero"/></g><path fill="#ffffff" d="M 349.75 485.3125 L 490.933594 405 L 349.75 324.679688 Z M 349.75 485.3125 " fill-opacity="1" fill-rule="nonzero"/></svg>